<svg xmlns="http://www.w3.org/2000/svg" viewBox="0 0 64 64">
  <rect width="64" height="64" rx="14" fill="#111827"/>
  <circle cx="32" cy="32" r="22" fill="#f59e0b"/>
  <path d="M32 10c0 14 0 30 0 44" fill="none" stroke="#111827" stroke-width="4" stroke-linecap="round"/>
  <path d="M12 32h40" fill="none" stroke="#111827" stroke-width="4" stroke-linecap="round"/>
  <path d="M16 19c8 7 24 7 32 0" fill="none" stroke="#111827" stroke-width="3.4" stroke-linecap="round"/>
  <path d="M16 45c8-7 24-7 32 0" fill="none" stroke="#111827" stroke-width="3.4" stroke-linecap="round"/>
  <path d="M23 43V21h12c6 0 10 3 10 8 0 4-2 6-6 7l7 7h-8l-6-6h-3v6h-6Zm6-12h6c2 0 4-1 4-3s-2-3-4-3h-6v6Z" fill="#ffffff"/>
</svg>
